<?xml version="1.0" encoding="UTF-8"?>
<svg version="1.1" xmlns="http://www.w3.org/2000/svg" width="502" height="502">
<path d="M0 0 C165.66 0 331.32 0 502 0 C502 165.66 502 331.32 502 502 C336.34 502 170.68 502 0 502 C0 336.34 0 170.68 0 0 Z " fill="#FDF9F9" transform="translate(0,0)"/>
<path d="M0 0 C9.45825651 3.09519686 17.0440491 8.56572814 24.375 15.125 C25.179375 16.053125 25.179375 16.053125 26 17 C26 17.99 26 18.98 26 20 C27.546875 19.9071875 27.546875 19.9071875 29.125 19.8125 C36.47243973 19.7993561 43.90585046 21.67065813 50.86328125 23.9296875 C51.56839844 24.28289062 52.27351562 24.63609375 53 25 C54 27.75 54 27.75 54 31 C52.5625 34.375 52.5625 34.375 51 37 C45.5610835 37.21755666 41.12919186 37.10428384 36 35 C36 34.34 36 33.68 36 33 C31.87013157 32.91784624 31.87013157 32.91784624 28 34 C26.55362367 36.08714389 26.55362367 36.08714389 25.375 38.5625 C23.984375 41.03125 23.984375 41.03125 22 43 C17.25116563 43.80921841 12.77192494 43.52948756 8 43 C7.73445312 43.60328125 7.46890625 44.2065625 7.1953125 44.828125 C6.84210938 45.62734375 6.48890625 46.4265625 6.125 47.25 C5.60292969 48.43335938 5.60292969 48.43335938 5.0703125 49.640625 C4.71710938 50.41921875 4.36390625 51.1978125 4 52 C3.69578125 52.73992187 3.3915625 53.47984375 3.078125 54.2421875 C2.54445313 55.11230469 2.54445313 55.11230469 2 56 C-1.35759839 56.87048847 -3.95525264 57.19245346 -7.375 56.5625 C-8.179375 55.7890625 -8.179375 55.7890625 -9 55 C-10.07438349 51.77684954 -10.37786137 50.2868763 -10 47 C-8.1936017 41.6932657 -5.63685908 37.07661227 -2.16796875 32.67578125 C-0.18174994 30.68147193 1.48956498 29.27716187 4 28 C7.42478129 27.47649772 10.57122541 27.55735082 14 28 C13.25807802 26.09061408 13.25807802 26.09061408 12 24 C10.06885275 22.2880168 10.06885275 22.2880168 7.875 20.8125 C6.56923083 19.89474409 5.27326124 18.96234861 4 18 C4 17.67 4 17.34 4 17 C-3.25234444 14.82763876 -9.36128504 15.13054861 -16.80078125 16.296875 C-19.78211414 16.952113 -22.27020676 17.64420269 -25 19 C-27.21015542 20.77654077 -27.21015542 20.77654077 -29.1875 22.875 C-29.86167969 23.55304688 -30.53585937 24.23109375 -31.23046875 24.9296875 C-32.90926344 26.89384023 -33.89515641 28.68626925 -35 31 C-36.75 32.3125 -36.75 32.3125 -39 33 C-41.9375 33.0625 -41.9375 33.0625 -45 32 C-46.1796875 30.5078125 -46.1796875 30.5078125 -47.3125 28.6875 C-48.68910989 26.57698768 -49.81125384 25.13748668 -51.85546875 23.6484375 C-56.23945733 21.42849428 -60.29011334 20.68491959 -65.1875 20.5 C-72.40607699 20.737509 -79.3135415 22.26463061 -86 25 C-88.87347535 26.88413119 -88.87347535 26.88413119 -91 29 C-91 29.66 -91 30.32 -91 31 C-90.21496094 31.17015625 -89.42992187 31.3403125 -88.62109375 31.515625 C-82.44487678 32.9403229 -77.18100798 34.28318993 -72 38 C-70.5625 39.9375 -70.5625 39.9375 -70 42 C-69.75 44.5625 -69.75 44.5625 -70 47 C-70.66 47.99 -71.32 48.98 -72 50 C-77.21105528 50.51256281 -77.21105528 50.51256281 -80 50 C-80.76828125 49.52820313 -81.5365625 49.05640625 -82.328125 48.5703125 C-86.57576071 46.07389502 -91.09775645 45.50823735 -95.9375 45.01171875 C-101.37935559 44.75549371 -105.9221422 46.67852378 -110.8828125 48.75390625 C-114.67846694 50.27121673 -117.95500783 50.68274571 -122 51 C-122.33 51.33 -122.66 51.66 -123 52 C-126.80014218 51.99244505 -130.5892364 51.92099154 -134.38671875 51.78515625 C-135.18464844 51.77097656 -135.98257813 51.75679687 -136.8046875 51.7421875 C-137.90272705 51.70907471 -137.90272705 51.70907471 -139.02294922 51.67529297 C-140.00158936 51.83602295 -140.00158936 51.83602295 -141 52 C-142.63202486 53.47035581 -142.63202486 53.47035581 -144 55 C-144.66 55 -145.32 55 -146 55 C-146.33 55.99 -146.66 56.98 -147 58 C-149 59 -149 59 -152.4375 59.3125 C-153.613125 59.209375 -154.78875 59.10625 -156 59 C-156.66 58.484375 -157.32 57.96875 -158 57.4375 C-159 55 -159 55 -159 51.4375 C-158.505 49.7359375 -158.505 49.7359375 -158 48 C-155.6875 46.3125 -155.6875 46.3125 -153 45 C-152.278125 44.278125 -151.55625 43.55625 -150.8125 42.8125 C-150.214375 42.214375 -149.61625 41.61625 -149 41 C-148.34 41 -147.68 41 -147 41 C-146.67 40.01 -146.34 39.02 -146 38 C-145.01 37.505 -145.01 37.505 -144 37 C-141.90890993 37.00419476 -139.81754724 37.01469874 -137.72705078 37.06469727 C-128.58218775 37.281846 -120.82656973 36.49784158 -112 34 C-110.33647154 33.65134266 -108.67063022 33.31286348 -107 33 C-106.90203125 32.41992188 -106.8040625 31.83984375 -106.703125 31.2421875 C-105.96862527 27.40505962 -105.15253034 24.28811286 -103.3125 20.8125 C-100.49109822 17.38106541 -97.7157295 14.46021934 -94 12 C-89.57118248 10.00254345 -85.87419116 9 -81 9 C-81 8.34 -81 7.68 -81 7 C-76.10741005 5.58939628 -71.24363693 5.77648926 -66.1875 5.75 C-65.21490234 5.729375 -64.24230469 5.70875 -63.24023438 5.6875 C-58.84092988 5.66367168 -55.00499558 5.71360737 -50.90234375 7.4140625 C-48.35923486 8.80370208 -46.99486736 10.00513264 -45 12 C-42.65127469 13.16977494 -42.65127469 13.16977494 -40 13 C-37.45817955 10.79245093 -37.45817955 10.79245093 -35 8 C-30.05955517 4.09360176 -24.99755987 2.55382327 -19 1 C-18.37867188 0.81953125 -17.75734375 0.6390625 -17.1171875 0.453125 C-11.51006553 -0.74692324 -5.65501778 -0.98617521 0 0 Z " fill="#140E0E" transform="translate(368,201)"/>
<path d="M0 0 C3 0.375 3 0.375 5.25 1.625 C7.19638675 3.57138675 8.03338789 4.79307166 9 7.375 C9.01390115 9.81326152 8.9421955 12.2526506 8.8125 14.6875 C8.73031685 17.30267411 8.81372077 19.75015632 9 22.375 C10.32868328 25.17784284 11.97913755 26.95982293 14 29.375 C15.12133973 33.93511491 15.13875675 37.67613075 14.5 42.3125 C13.59905388 46.31121977 12.09406956 49.04866556 9.625 52.3125 C7.31731034 55.1132423 4.96910961 57.2887754 2 59.375 C2.495 61.85 2.495 61.85 3 64.375 C4.98 64.87 4.98 64.87 7 65.375 C7 66.035 7 66.695 7 67.375 C8.98 68.035 10.96 68.695 13 69.375 C13 70.035 13 70.695 13 71.375 C13.66 71.601875 14.32 71.82875 15 72.0625 C18.26534621 73.49108897 20.88965972 75.33070962 23.7421875 77.44921875 C26.09822757 78.59841068 26.09822757 78.59841068 29.26953125 78.2421875 C33.49013138 77.2610637 36.9770041 75.7853463 40.8125 73.8125 C41.50738525 73.45969971 42.20227051 73.10689941 42.91821289 72.7434082 C48.79145143 69.66682018 54.33822399 66.14248522 59 61.375 C59.33 60.385 59.66 59.395 60 58.375 C58.515 57.88 58.515 57.88 57 57.375 C53.76116807 51.60875587 51.20741202 44.99853366 50.80859375 38.3515625 C51 36.375 51 36.375 52.5 32.875 C53.7375 31.6375 53.7375 31.6375 55 30.375 C58.5 29.3125 58.5 29.3125 62 29.375 C64.21875 30.4609375 64.21875 30.4609375 66 32.375 C66.1875 35.44921875 66.1875 35.44921875 66 39.0625 C66.0696931 42.84039592 66.0696931 42.84039592 67 46.375 C70.32881326 50.20945578 74.40265932 52.36000035 79 54.375 C83.22392198 56.15005988 87.49055001 57.76032511 91.82421875 59.24609375 C95 60.375 95 60.375 96 61.375 C99.34177386 61.36744797 102.67103746 61.29667314 106.00976562 61.16015625 C108.00738964 61.1199479 110.00642354 61.24169094 112 61.375 C114.484375 62.6953125 114.484375 62.6953125 116 64.375 C116.4375 67.375 116.4375 67.375 116 70.375 C114.625 72.25 114.625 72.25 113 73.375 C112.34 73.375 111.68 73.375 111 73.375 C111 74.035 111 74.695 111 75.375 C108.3731791 76.68841045 106.31609148 76.6920831 103.375 76.8125 C96.08143854 76.78818813 90.34438387 74.64963759 83.7265625 71.8828125 C80.18554486 70.42840833 76.77485059 69.11111831 73 68.375 C70.6353144 69.24290792 70.6353144 69.24290792 68.8125 71 C68.13703125 71.56976563 67.4615625 72.13953125 66.765625 72.7265625 C65.49901846 73.90910223 64.26819332 75.13041335 63.0625 76.375 C60.37317809 78.9828273 57.35944547 80.88268675 54.21875 82.91015625 C52.7521985 83.87839008 51.31760976 84.89705419 49.921875 85.96484375 C47.72182453 87.57910842 45.42881798 88.60576417 42.8984375 89.609375 C40.99813474 90.34559632 40.99813474 90.34559632 39.2265625 91.265625 C35.12016047 93.17154999 31.39817623 93.66891433 26.875 93.625 C22.81116764 93.22146524 19.67818612 92.3630096 16.15625 90.36328125 C12.65260758 88.19082627 9.32164494 85.81475268 6 83.375 C4.515 82.385 4.515 82.385 3 81.375 C3 80.715 3 80.055 3 79.375 C2.21625 79.065625 1.4325 78.75625 0.625 78.4375 C-2 77.375 -2 77.375 -4 76.375 C-4 75.715 -4 75.055 -4 74.375 C-4.99 74.045 -5.98 73.715 -7 73.375 C-7.474375 72.50875 -7.94875 71.6425 -8.4375 70.75 C-9.283125 69.96625 -10.12875 69.1825 -11 68.375 C-14.15680484 68.29629849 -17.09864591 68.63018285 -20.22265625 69.078125 C-23 69.375 -23 69.375 -26 68.375 C-26.1546875 69.2721875 -26.1546875 69.2721875 -26.3125 70.1875 C-27 72.375 -27 72.375 -28.21875 73.96875 C-29.10046875 74.66484375 -29.10046875 74.66484375 -30 75.375 C-32.48046875 75.88671875 -32.48046875 75.88671875 -35.1875 76.0625 C-36.08855469 76.12824219 -36.98960937 76.19398438 -37.91796875 76.26171875 C-38.94857422 76.31779297 -38.94857422 76.31779297 -40 76.375 C-40 77.035 -40 77.695 -40 78.375 C-53.37517484 81.50238952 -53.37517484 81.50238952 -59 80.375 C-59.66 79.385 -60.32 78.395 -61 77.375 C-61.37167184 74.61479004 -61.17850636 72.18647524 -61 69.375 C-60.01 68.385 -60.01 68.385 -59 67.375 C-56.1796875 66.9609375 -56.1796875 66.9609375 -52.875 66.75 C-51.23144531 66.63785156 -51.23144531 66.63785156 -49.5546875 66.5234375 C-48.29011719 66.44996094 -48.29011719 66.44996094 -47 66.375 C-47 65.715 -47 65.055 -47 64.375 C-42.14334183 62.97404091 -37.80946377 62.27331099 -32.75 62.0625 C-29.69564147 61.90449816 -29.69564147 61.90449816 -27 61.375 C-24.6706919 59.13003458 -24.6706919 59.13003458 -23 56.375 C-21.05863535 55.24324375 -19.06163237 54.3459614 -17.01953125 53.41015625 C-13.93385669 51.82852422 -11.61722265 49.64325963 -9 47.375 C-8.113125 46.859375 -7.22625 46.34375 -6.3125 45.8125 C-3.84294325 44.27737013 -2.68484303 42.701688 -1 40.375 C-0.34 40.375 0.32 40.375 1 40.375 C0.39205064 37.62118446 0.39205064 37.62118446 -1 34.375 C-2.01444023 33.2661305 -3.05852958 32.18392464 -4.125 31.125 C-5.734375 29.38671875 -5.734375 29.38671875 -7 27.375 C-7.49746141 23.97733854 -7.37008076 20.7811137 -7 17.375 C-6.34 17.375 -5.68 17.375 -5 17.375 C-5.33 16.364375 -5.66 15.35375 -6 14.3125 C-7.04804486 10.56839771 -7.45019732 7.27671012 -7 3.375 C-4.78774156 0.73730724 -3.40614032 0.42576754 0 0 Z " fill="#140D0D" transform="translate(303,248.625)"/>
<path d="M0 0 C3.3125 -0.3125 3.3125 -0.3125 6 0 C6.99 1.98 6.99 1.98 8 4 C8.66 4 9.32 4 10 4 C10.1875 6.875 10.1875 6.875 10 10 C9.01 10.66 8.02 11.32 7 12 C4.88398837 15.78792205 4.03253 19.50391754 3.75 23.8125 C3.87269848 27.0198969 3.87269848 27.0198969 5 30 C5.66 30 6.32 30 7 30 C8.22718409 32.14020905 8.97704491 33.84305127 9.3359375 36.296875 C9.3927332 39.8636452 9.362614 42.96689219 8.171875 46.359375 C6.70885251 49.35092846 5.36482191 51.63517809 3 54 C1.55325135 56.81312237 0.98875878 59.09742387 0.625 62.25 C1.03536579 66.35365791 2.1917314 69.14415483 4.02734375 72.7890625 C6.58963699 78.61339172 6.23742118 84.81388807 6.16015625 91.0625 C5.85108684 98.66108463 4.61545034 105.8511024 2 113 C0.75449614 117.87047777 0.66485805 122.81435002 0.4375 127.8125 C0.39431641 128.69615234 0.35113281 129.57980469 0.30664062 130.49023438 C0.20108464 132.65999623 0.10008929 134.8299791 0 137 C-0.66 137 -1.32 137 -2 137 C-2 137.66 -2 138.32 -2 139 C-4 140 -4 140 -6.9375 140.25 C-7.948125 140.1675 -8.95875 140.085 -10 140 C-11.6796875 138.90234375 -11.6796875 138.90234375 -13 137 C-13.29296875 133.86328125 -13.29296875 133.86328125 -13.1875 130.3125 C-13.14689453 128.54326172 -13.14689453 128.54326172 -13.10546875 126.73828125 C-13.07066406 125.83464844 -13.03585938 124.93101562 -13 124 C-13.928125 124.04125 -14.85625 124.0825 -15.8125 124.125 C-17.3903125 124.063125 -17.3903125 124.063125 -19 124 C-19.99 123.34 -20.98 122.68 -22 122 C-24.72141326 121.68205271 -27.24378256 121.86875155 -30 122 C-30.99 122.495 -30.99 122.495 -32 123 C-33.37676269 123.12739176 -34.75868927 123.20184678 -36.140625 123.24609375 C-36.96433594 123.27896484 -37.78804687 123.31183594 -38.63671875 123.34570312 C-40.36316672 123.40634816 -42.0897338 123.46370174 -43.81640625 123.51757812 C-48.57328058 123.71362349 -52.52405051 124.21640194 -57 126 C-58.485 126.495 -58.485 126.495 -60 127 C-58.32525532 131.29445703 -56.65564424 135.15702883 -53.8125 138.8125 C-49.40425814 142.24113256 -44.80938663 144.33626675 -39.37109375 145.62109375 C-37.66415602 145.94925316 -35.9545217 146.26377503 -34.2421875 146.5625 C-31.66972191 147.06444451 -29.37330303 147.89245858 -27 149 C-27 149.66 -27 150.32 -27 151 C-24.03 151.99 -24.03 151.99 -21 153 C-21 153.66 -21 154.32 -21 155 C-20.34 155 -19.68 155 -19 155 C-18.70703125 161.0546875 -18.70703125 161.0546875 -19 163 C-19.99 163.66 -20.98 164.32 -22 165 C-25.3125 165.3125 -25.3125 165.3125 -29 165 C-32.4375 163.5 -32.4375 163.5 -35 162 C-35 161.34 -35 160.68 -35 160 C-35.58265625 159.98582031 -36.1653125 159.97164062 -36.765625 159.95703125 C-44.20318775 159.52434285 -50.4070173 157.44590739 -57 154 C-62.82004954 150.21147718 -67.1585106 144.72070448 -71 139 C-72.82077096 135.27929413 -73.15576411 132.02468981 -73.3125 127.9375 C-73.2324269 124.96144978 -73.01889933 123.0489159 -71.9375 120.25 C-71.298125 119.5075 -70.65875 118.765 -70 118 C-69.60554688 117.49726563 -69.21109375 116.99453125 -68.8046875 116.4765625 C-66.9747748 114.51252008 -65.36371476 113.30153914 -63 112 C-53.80061234 109.32017838 -44.56719787 108.51076829 -35 109 C-35 108.34 -35 107.68 -35 107 C-26.91542489 106.53728982 -20.47667599 107.03240701 -12.94921875 110.125 C-12.30597656 110.41375 -11.66273437 110.7025 -11 111 C-10.93941406 110.20335937 -10.87882812 109.40671875 -10.81640625 108.5859375 C-10.73261719 107.52632813 -10.64882812 106.46671875 -10.5625 105.375 C-10.48128906 104.33085937 -10.40007812 103.28671875 -10.31640625 102.2109375 C-10 99 -10 99 -9.48828125 96.05859375 C-8.52759529 90.04085688 -8.39545728 84.05185847 -9 78 C-10.08581052 75.55123153 -11.39121683 73.53786571 -12.875 71.31640625 C-14.368494 68.24126062 -14.43856244 65.71844495 -14.5 62.3125 C-14.36165539 58.62042816 -14.14307051 55.52103729 -12.5 52.1875 C-12.005 51.465625 -11.51 50.74375 -11 50 C-10.34 50 -9.68 50 -9 50 C-8.814375 48.88625 -8.814375 48.88625 -8.625 47.75 C-8 45 -8 45 -6.9375 42.9375 C-5.70962605 40.75862665 -5.70962605 40.75862665 -6 37 C-7.89586384 34.85410577 -7.89586384 34.85410577 -10 33 C-11.24719807 30.50560386 -11.20294578 28.72546277 -11.25 25.9375 C-11.19964033 20.44110153 -10.13747215 16.03340217 -8 11 C-7.54625 9.9275 -7.0925 8.855 -6.625 7.75 C-4.72528285 4.53509406 -2.93592931 2.32143248 0 0 Z " fill="#0F0F0F" transform="translate(137,252)"/>
<path d="M0 0 C4.08750726 0.75629813 8.03406424 1.75926032 12 3 C12 3.66 12 4.32 12 5 C12.7425 5.28875 13.485 5.5775 14.25 5.875 C16.56739797 6.82302644 18.77917115 7.84845911 21 9 C21 9.66 21 10.32 21 11 C21.71800781 11.26683594 22.43601562 11.53367187 23.17578125 11.80859375 C26.034565 13.01458136 28.54753648 14.43698539 31.1875 16.0625 C34.5385079 18.13105765 34.5385079 18.13105765 38 20 C38 20.66 38 21.32 38 22 C38.66 22 39.32 22 40 22 C40.08096803 23.45742463 40.13917774 24.91612807 40.1875 26.375 C40.23970703 27.59316406 40.23970703 27.59316406 40.29296875 28.8359375 C40.19628906 29.55007812 40.09960938 30.26421875 40 31 C39.01 31.66 38.02 32.32 37 33 C34.66800612 33.07905064 32.33167378 33.08798769 30 33 C30 32.34 30 31.68 30 31 C29.27167969 30.91105469 28.54335937 30.82210937 27.79296875 30.73046875 C25 30 25 30 22.67578125 28.36328125 C21.89589844 27.68652344 21.11601563 27.00976562 20.3125 26.3125 C13.18115722 20.31216328 13.18115722 20.31216328 5 16 C-0.93317183 14.79700918 -6.96769803 14.38112583 -13 14 C-13.2475 14.556875 -13.495 15.11375 -13.75 15.6875 C-15.25935617 18.47980892 -16.82577725 20.67753479 -19 23 C-21.734375 24.23046875 -21.734375 24.23046875 -24.75 25.1875 C-28.22086265 26.53610559 -30.65307507 27.67692261 -33.38671875 30.22265625 C-35.44004057 32.75313095 -37.26537231 35.23951722 -39 38 C-39.43465576 38.63244629 -39.86931152 39.26489258 -40.31713867 39.91650391 C-42.3935125 43.18499954 -43.84345053 45.97182921 -44.4309082 49.83007812 C-44.56099572 52.86064471 -44.53635218 55.84353301 -44.4375 58.875 C-44.43169922 59.90625 -44.42589844 60.9375 -44.41992188 62 C-44.36568065 66.01145344 -44.36568065 66.01145344 -44 70 C-43.34 70.99 -42.68 71.98 -42 73 C-41.278125 73.391875 -40.55625 73.78375 -39.8125 74.1875 C-34.97427695 77.30546597 -31.40962436 81.807251 -28.3125 86.625 C-27.879375 87.40875 -27.44625 88.1925 -27 89 C-25.07791143 92.03814 -23.29482074 94.70517926 -20.75 97.25 C-20.1725 97.8275 -19.595 98.405 -19 99 C-19 99.66 -19 100.32 -19 101 C-9.5199646 103.57595445 -0.13979807 105.62714729 9.61450195 106.87231445 C13.13044392 107.35936651 15.77080726 107.88765062 18.98828125 109.46484375 C19.65214844 109.97144531 20.31601563 110.47804688 21 111 C22 113 22 113 22.25 115.9375 C22.1675 116.948125 22.085 117.95875 22 119 C20.796875 120.671875 20.796875 120.671875 19 122 C11.80574728 123.13017822 3.99998233 121.76936823 -3 120 C-3.33 119.67 -3.66 119.34 -4 119 C-5.19625 118.773125 -6.3925 118.54625 -7.625 118.3125 C-12.20114001 117.33242493 -16.46426403 115.8232494 -20.8125 114.125 C-21.45848145 113.88048096 -22.10446289 113.63596191 -22.77001953 113.3840332 C-25.7152881 112.2037009 -28.01949865 110.98351789 -30.44921875 108.9296875 C-30.96097656 108.29289062 -31.47273438 107.65609375 -32 107 C-32 106.34 -32 105.68 -32 105 C-33.485 104.505 -33.485 104.505 -35 104 C-36.09765625 102.1875 -36.09765625 102.1875 -37.0625 100 C-37.66442339 98.64627672 -38.303842 97.3077624 -39 96 C-39.66 95.67 -40.32 95.34 -41 95 C-41.53625 93.948125 -42.0725 92.89625 -42.625 91.8125 C-43.87533307 89.49654216 -44.92366891 88.06285199 -46.96875 86.37890625 C-48.38604692 85.390393 -49.8052666 84.40462979 -51.2265625 83.421875 C-53 82 -53 82 -54.5 79.125 C-54.665 78.42375 -54.83 77.7225 -55 77 C-55.66 77 -56.32 77 -57 77 C-58.69146061 71.92561817 -58.22526129 66.59946314 -58.24023438 61.28588867 C-58.24991783 59.20515627 -58.28094366 57.12542168 -58.3125 55.04492188 C-58.31903307 53.71094333 -58.32428235 52.37695776 -58.328125 51.04296875 C-58.3374707 49.83664795 -58.34681641 48.63032715 -58.35644531 47.38745117 C-57.96096096 43.62899547 -56.87608002 41.25386288 -55 38 C-54.32710937 36.78376953 -54.32710937 36.78376953 -53.640625 35.54296875 C-48.85858414 27.44305123 -43.80118511 19.46082958 -36 14 C-34.55134912 13.37297201 -33.09200912 12.77028445 -31.625 12.1875 C-26.98884171 10.28769146 -24.14702233 7.49669147 -20.82421875 3.8046875 C-15.25925768 -1.70069155 -7.31210228 -0.64502607 0 0 Z " fill="#0E0E0E" transform="translate(99,61)"/>
<path d="M0 0 C12.63410042 0.72086459 12.63410042 0.72086459 17.9765625 3.17578125 C19.65234375 4.22265625 19.65234375 4.22265625 21.90234375 6.22265625 C21.90234375 6.88265625 21.90234375 7.54265625 21.90234375 8.22265625 C22.56234375 8.22265625 23.22234375 8.22265625 23.90234375 8.22265625 C24.18207031 8.77953125 24.46179688 9.33640625 24.75 9.91015625 C27.45716402 15.06334308 30.44685571 19.26751019 34.44921875 23.49609375 C35.90234375 25.22265625 35.90234375 25.22265625 36.90234375 28.22265625 C37.12960002 31.56296269 37.2950066 34.89689554 37.41992188 38.2421875 C37.56963516 41.27600009 37.76198177 43.8753013 38.90625 46.70703125 C41.11454637 52.28406208 40.55997271 58.95413628 40.17919922 64.87451172 C39.43189354 71.21277096 36.97711185 76.68934423 33.90234375 82.22265625 C28.544248 90.35325503 21.67536829 96.45072285 13.90234375 102.22265625 C12.85046875 103.04830078 12.85046875 103.04830078 11.77734375 103.890625 C9.83520342 105.28849616 8.12902512 106.3447076 5.90234375 107.22265625 C2.5001634 107.7402701 -0.72351097 107.97525371 -4.09765625 107.22265625 C-4.75765625 106.23265625 -5.41765625 105.24265625 -6.09765625 104.22265625 C-6.34765625 100.66015625 -6.34765625 100.66015625 -6.09765625 97.22265625 C-5.43765625 96.56265625 -4.77765625 95.90265625 -4.09765625 95.22265625 C-2.10944312 94.82501362 -0.10821286 94.48490276 1.90234375 94.22265625 C1.90234375 93.56265625 1.90234375 92.90265625 1.90234375 92.22265625 C3.69931083 91.00071864 5.54221173 89.84610232 7.40234375 88.72265625 C14.26444219 84.25054487 18.80567602 79.29279359 23.0546875 72.3359375 C25.66525602 66.78998317 25.22133424 60.6101895 25.203125 54.61328125 C24.91595702 51.3761149 24.31909053 50.0171056 22.90234375 47.22265625 C22.671875 44.09375 22.671875 44.09375 22.71484375 40.66015625 C22.72128906 39.52449219 22.72773438 38.38882813 22.734375 37.21875 C22.90234375 34.22265625 22.90234375 34.22265625 23.90234375 31.22265625 C23.32484375 30.99578125 22.74734375 30.76890625 22.15234375 30.53515625 C19.90234375 29.22265625 19.90234375 29.22265625 17.77734375 27.03515625 C15.57385985 23.7299304 14.80719136 21.06825859 13.90234375 17.22265625 C13.24234375 17.22265625 12.58234375 17.22265625 11.90234375 17.22265625 C11.90234375 16.56265625 11.90234375 15.90265625 11.90234375 15.22265625 C11.26425781 15.23425781 10.62617188 15.24585938 9.96875 15.2578125 C9.14246094 15.26683594 8.31617188 15.27585937 7.46484375 15.28515625 C6.22927734 15.30255859 6.22927734 15.30255859 4.96875 15.3203125 C4.28683594 15.28808594 3.60492188 15.25585938 2.90234375 15.22265625 C2.40734375 14.72765625 2.40734375 14.72765625 1.90234375 14.22265625 C0.22050427 13.98978617 -1.46889785 13.81001459 -3.16015625 13.66015625 C-4.07925781 13.57636719 -4.99835938 13.49257813 -5.9453125 13.40625 C-6.65558594 13.34566406 -7.36585938 13.28507812 -8.09765625 13.22265625 C-8.09765625 13.88265625 -8.09765625 14.54265625 -8.09765625 15.22265625 C-8.67773438 15.5371875 -9.2578125 15.85171875 -9.85546875 16.17578125 C-10.63664062 16.60375 -11.4178125 17.03171875 -12.22265625 17.47265625 C-13.05152344 17.92640625 -13.88039063 18.38015625 -14.734375 18.84765625 C-17.26893122 20.25569159 -17.26893122 20.25569159 -20.03515625 22.47265625 C-21.04578125 23.05015625 -22.05640625 23.62765625 -23.09765625 24.22265625 C-24.70023631 24.30526347 -26.30545615 24.34271871 -27.91015625 24.34765625 C-30.52909799 24.38046881 -30.52909799 24.38046881 -33.09765625 25.22265625 C-35.83572467 27.64495351 -38.02898054 30.19771735 -40.28515625 33.0703125 C-40.88328125 33.78058594 -41.48140625 34.49085937 -42.09765625 35.22265625 C-42.75765625 35.22265625 -43.41765625 35.22265625 -44.09765625 35.22265625 C-44.09765625 35.88265625 -44.09765625 36.54265625 -44.09765625 37.22265625 C-46.07765625 37.71765625 -46.07765625 37.71765625 -48.09765625 38.22265625 C-48.09765625 38.88265625 -48.09765625 39.54265625 -48.09765625 40.22265625 C-50.09765625 41.22265625 -50.09765625 41.22265625 -54.03515625 41.47265625 C-56.1875 41.4296875 -56.1875 41.4296875 -58.09765625 41.22265625 C-59.08765625 40.69671875 -59.08765625 40.69671875 -60.09765625 40.16015625 C-61.09765625 38.22265625 -61.09765625 38.22265625 -61.47265625 34.72265625 C-61.34890625 33.56765625 -61.22515625 32.41265625 -61.09765625 31.22265625 C-59.84765625 29.34765625 -59.84765625 29.34765625 -58.09765625 28.22265625 C-57.47890625 28.09890625 -56.86015625 27.97515625 -56.22265625 27.84765625 C-53.84872984 27.31520438 -53.84872984 27.31520438 -51.66015625 25.03515625 C-49.06529149 22.28003917 -49.06529149 22.28003917 -46.91015625 19.28515625 C-44.0481016 15.83095236 -40.61141699 13.57631109 -36.74609375 11.34765625 C-33.96654474 10.16696286 -31.97605306 9.84765625 -28.97265625 9.84765625 C-27.05453125 10.03328125 -27.05453125 10.03328125 -25.09765625 10.22265625 C-25.09765625 9.56265625 -25.09765625 8.90265625 -25.09765625 8.22265625 C-23.55859375 7.0390625 -23.55859375 7.0390625 -21.47265625 5.78515625 C-20.46332031 5.16833984 -20.46332031 5.16833984 -19.43359375 4.5390625 C-18.27730469 3.88744141 -18.27730469 3.88744141 -17.09765625 3.22265625 C-16.164375 2.68125 -15.23109375 2.13984375 -14.26953125 1.58203125 C-9.47299524 -0.47362704 -5.14884799 -0.11644396 0 0 Z " fill="#0F0F0F" transform="translate(433.09765625,19.77734375)"/>
<path d="M0 0 C10.25056136 -0.01037506 10.25056136 -0.01037506 14.37109375 1.3359375 C16.546875 2.43359375 16.546875 2.43359375 19.609375 4.43359375 C19.66337236 5.89152259 19.70216677 7.35002087 19.734375 8.80859375 C19.75757813 9.62070313 19.78078125 10.4328125 19.8046875 11.26953125 C19.74023438 11.98367187 19.67578125 12.6978125 19.609375 13.43359375 C18.949375 14.09359375 18.289375 14.75359375 17.609375 15.43359375 C17.33149832 17.85957326 17.33149832 17.85957326 17.4140625 20.66015625 C17.42050781 21.69140625 17.42695313 22.72265625 17.43359375 23.78515625 C17.45035156 24.86539063 17.46710938 25.945625 17.484375 27.05859375 C17.49339844 28.1465625 17.50242187 29.23453125 17.51171875 30.35546875 C17.53534091 33.04839527 17.56827944 35.7408863 17.609375 38.43359375 C19.589375 38.92859375 19.589375 38.92859375 21.609375 39.43359375 C21.609375 40.09359375 21.609375 40.75359375 21.609375 41.43359375 C24.44480866 41.37300756 27.27537645 41.28575984 30.109375 41.18359375 C31.29660156 41.16232422 31.29660156 41.16232422 32.5078125 41.140625 C36.74608671 40.96692524 40.14886243 40.43654348 44 38.59765625 C46.74776662 37.06746286 48.90589337 35.56516957 50.859375 33.05859375 C51.34019531 32.46175781 51.82101562 31.86492187 52.31640625 31.25 C53.80829597 29.22153627 53.80829597 29.22153627 55.546875 25.99609375 C56.2275 25.15046875 56.908125 24.30484375 57.609375 23.43359375 C61.171875 22.87109375 61.171875 22.87109375 64.609375 23.43359375 C65.24875 23.76359375 65.888125 24.09359375 66.546875 24.43359375 C67.609375 26.43359375 67.609375 26.43359375 67.984375 30.30859375 C68.0078125 32.30078125 68.0078125 32.30078125 67.609375 34.43359375 C64.56303618 40.48758772 59.58658644 44.94304298 54.609375 49.43359375 C50.78310856 52.30818234 47.31324707 54.44882932 42.609375 55.43359375 C41.0696706 55.52307219 39.52667561 55.56420835 37.984375 55.56640625 C36.67726563 55.56833984 36.67726563 55.56833984 35.34375 55.5703125 C34.44140625 55.56644531 33.5390625 55.56257813 32.609375 55.55859375 C31.70703125 55.56246094 30.8046875 55.56632812 29.875 55.5703125 C29.00359375 55.56902344 28.1321875 55.56773437 27.234375 55.56640625 C26.44289063 55.56527832 25.65140625 55.56415039 24.8359375 55.56298828 C22.63935626 55.43533608 20.71948787 55.04001032 18.609375 54.43359375 C18.609375 53.77359375 18.609375 53.11359375 18.609375 52.43359375 C16.299375 52.10359375 13.989375 51.77359375 11.609375 51.43359375 C11.609375 50.77359375 11.609375 50.11359375 11.609375 49.43359375 C9.7475716 49.64632595 9.7475716 49.64632595 7.609375 50.43359375 C6.25629187 51.74688032 4.92067422 53.07858456 3.609375 54.43359375 C2.949375 54.43359375 2.289375 54.43359375 1.609375 54.43359375 C1.609375 55.09359375 1.609375 55.75359375 1.609375 56.43359375 C-1.89273134 58.50376409 -4.84139384 60.20907626 -8.890625 60.79589844 C-11.56719996 60.89768084 -14.21323832 60.88157847 -16.890625 60.80859375 C-17.78910156 60.80730469 -18.68757813 60.80601562 -19.61328125 60.8046875 C-27.00657953 60.70783206 -33.39640277 59.21285764 -40.390625 56.80859375 C-41.15375 56.54820312 -41.916875 56.2878125 -42.703125 56.01953125 C-43.26 55.82617188 -43.816875 55.6328125 -44.390625 55.43359375 C-44.390625 54.77359375 -44.390625 54.11359375 -44.390625 53.43359375 C-45.380625 53.10359375 -46.370625 52.77359375 -47.390625 52.43359375 C-48.390625 50.43359375 -48.390625 50.43359375 -48.55859375 48.33984375 C-48.56503906 47.54578125 -48.57148438 46.75171875 -48.578125 45.93359375 C-48.59230469 45.13953125 -48.60648438 44.34546875 -48.62109375 43.52734375 C-48.54503906 42.83640625 -48.46898437 42.14546875 -48.390625 41.43359375 C-47.730625 40.77359375 -47.070625 40.11359375 -46.390625 39.43359375 C-43.078125 38.99609375 -43.078125 38.99609375 -39.390625 39.43359375 C-36.828125 41.80859375 -36.828125 41.80859375 -34.390625 44.43359375 C-29.7403896 46.60811141 -25.42886571 46.64430853 -20.3984375 46.609375 C-19.44710937 46.59261719 -18.49578125 46.57585937 -17.515625 46.55859375 C-16.54109375 46.54957031 -15.5665625 46.54054687 -14.5625 46.53125 C-12.17161772 46.50780998 -9.78125239 46.47499817 -7.390625 46.43359375 C-7.390625 45.77359375 -7.390625 45.11359375 -7.390625 44.43359375 C-6.4625 43.83546875 -5.534375 43.23734375 -4.578125 42.62109375 C-1.43232261 40.68634378 -1.43232261 40.68634378 0.265625 38.37890625 C2.12705098 34.29892023 2.17428785 30.55874841 2.296875 26.12109375 C2.33103516 25.28513672 2.36519531 24.44917969 2.40039062 23.58789062 C2.48242961 21.53691603 2.5475901 19.48527837 2.609375 17.43359375 C1.65675781 17.29695313 0.70414062 17.1603125 -0.27734375 17.01953125 C-1.30472656 16.82617188 -2.33210938 16.6328125 -3.390625 16.43359375 C-5.203125 15.05859375 -5.203125 15.05859375 -6.390625 13.43359375 C-7.58397091 9.85355602 -7.72605724 7.19043479 -7.390625 3.43359375 C-5.00604848 0.85872684 -3.50559664 0.44829634 0 0 Z " fill="#0D0D0D" transform="translate(265.390625,132.56640625)"/>
<path d="M0 0 C3.4375 0.4375 3.4375 0.4375 5.25 1.5 C6.60663266 3.71345328 7.1451631 5.89598861 7.7734375 8.3984375 C9.42050025 13.45588902 12.50415248 18.03747873 15.4375 22.4375 C15.6328125 25.57421875 15.6328125 25.57421875 15.5625 29.125 C15.54445313 30.30449219 15.52640625 31.48398437 15.5078125 32.69921875 C15.48460937 33.60285156 15.46140625 34.50648438 15.4375 35.4375 C14.7775 35.4375 14.1175 35.4375 13.4375 35.4375 C12.78937126 40.12199485 12.29985435 44.7046074 12.4375 49.4375 C13.73454795 52.16648888 15.16576655 53.32425958 17.4375 55.4375 C19.15372794 59.58581371 19.71032862 63.21639542 19.81640625 67.68359375 C19.85056641 68.85083984 19.88472656 70.01808594 19.91992188 71.22070312 C19.94634766 72.42662109 19.97277344 73.63253906 20 74.875 C20.13717415 85.21021671 20.13717415 85.21021671 21.4375 95.4375 C21.9325 95.9325 21.9325 95.9325 22.4375 96.4375 C23.34251691 113.00627114 23.34251691 113.00627114 20.9375 120.0625 C20.4425 121.17625 19.9475 122.29 19.4375 123.4375 C18.7775 123.4375 18.1175 123.4375 17.4375 123.4375 C17.31632812 124.13617188 17.19515625 124.83484375 17.0703125 125.5546875 C16.90273438 126.46476562 16.73515625 127.37484375 16.5625 128.3125 C16.40007812 129.21742188 16.23765625 130.12234375 16.0703125 131.0546875 C15.86148437 131.84101563 15.65265625 132.62734375 15.4375 133.4375 C14.4475 134.4275 14.4475 134.4275 13.4375 135.4375 C10.74910615 135.70741906 8.14608064 135.52487357 5.4375 135.4375 C4.28390063 133.38870752 3.47850559 131.69116248 3.1015625 129.359375 C3.04229547 126.06412825 3.09631879 123.31592584 4.30078125 120.21484375 C4.98754285 118.87878028 5.70639085 117.55842854 6.46484375 116.26171875 C7.93129309 113.51139007 8.38714093 111.05246169 8.640625 107.95703125 C8.65609375 107.06371094 8.6715625 106.17039062 8.6875 105.25 C8.71328125 104.36957031 8.7390625 103.48914063 8.765625 102.58203125 C8.47374617 99.78485916 7.9557493 98.0412198 6.9609375 95.46875 C4.73507848 89.16368784 4.90871206 82.74645163 4.8125 76.125 C4.76147963 73.6288286 4.70694805 71.13272581 4.6484375 68.63671875 C4.63087402 67.54190186 4.61331055 66.44708496 4.59521484 65.3190918 C4.41453216 61.78866283 4.41453216 61.78866283 3.4375 58.4375 C2.4475 58.1075 1.4575 57.7775 0.4375 57.4375 C-1.2265625 55.7734375 -1.2265625 55.7734375 -2.5625 53.4375 C-3.13601601 49.08552555 -2.98912345 44.80218608 -2.5625 40.4375 C-1.62545743 38.4072411 -0.63324592 36.40053418 0.4375 34.4375 C0.95800767 30.23572072 0.74730477 26.49968777 -0.4375 22.4375 C-0.80875 21.7775 -1.18 21.1175 -1.5625 20.4375 C-2.2225 20.1075 -2.8825 19.7775 -3.5625 19.4375 C-5.66314438 16.41010075 -7.27277432 13.96566095 -7.9609375 10.3359375 C-8.0625 8.25 -8.0625 8.25 -7.5625 4.4375 C-7.046875 3.6125 -6.53125 2.7875 -6 1.9375 C-3.5625 0.4375 -3.5625 0.4375 0 0 Z " fill="#0F0F0F" transform="translate(436.5625,329.5625)"/>
<path d="M0 0 C4.14764458 1.38575596 8.07307247 3.08108253 12 5 C12 5.66 12 6.32 12 7 C13.175625 7.4640625 13.175625 7.4640625 14.375 7.9375 C17 9 17 9 19 10 C19 10.66 19 11.32 19 12 C20.32 12.33 21.64 12.66 23 13 C23 13.66 23 14.32 23 15 C24.98 15.66 26.96 16.32 29 17 C29 17.66 29 18.32 29 19 C30.2684375 19.309375 30.2684375 19.309375 31.5625 19.625 C35.16096174 21.0643847 37.7033801 22.57797286 40.5859375 25.13671875 C42 27 42 27 42.6640625 29.39453125 C42.90907724 31.61716493 43.03476114 33.76535551 43 36 C41.515 36.495 41.515 36.495 40 37 C40 37.66 40 38.32 40 39 C36.75 39.3125 36.75 39.3125 33 39 C30.8125 36.625 30.8125 36.625 29 34 C26.88339573 32.68834743 26.88339573 32.68834743 25 32 C25 31.34 25 30.68 25 30 C24.26910156 29.91105469 23.53820312 29.82210938 22.78515625 29.73046875 C20 29 20 29 17.74609375 27.36328125 C16.98425781 26.68652344 16.22242188 26.00976562 15.4375 25.3125 C10.07513782 20.82364478 4.34321925 17.87733657 -2 15 C-2 14.34 -2 13.68 -2 13 C-8.4690642 13.99434079 -13.99239612 15.32995383 -20 18 C-25.3960978 19.57627947 -30.39140725 20.23866352 -36 20 C-36 20.66 -36 21.32 -36 22 C-39.79815892 24.97387762 -43.96151581 27.52455179 -48.6796875 28.625 C-49.52789062 28.74875 -50.37609375 28.8725 -51.25 29 C-53.81579155 29.41552913 -55.65480192 29.79387966 -57.890625 31.12890625 C-59.61676233 32.66650916 -60.81113951 34.01439442 -62 36 C-62.7776319 38.3842115 -63.28997375 40.66789598 -63.67578125 43.14453125 C-63.78277344 43.75683594 -63.88976562 44.36914062 -64 45 C-64.495 45.495 -64.495 45.495 -65 46 C-68.03694171 46.38275505 -70.96157213 46.35594486 -74 46 C-75.010625 45.505 -76.02125 45.01 -77.0625 44.5 C-79 42 -79 42 -79.875 38.375 C-79.7421875 36.27734375 -79.7421875 36.27734375 -79 34 C-76.38524117 30.2537424 -73.28698797 27.15859001 -70 24 C-68.9790625 22.95005859 -68.9790625 22.95005859 -67.9375 21.87890625 C-66.03269521 20.03170645 -64.22522786 18.44639811 -62 17 C-59.74478179 16.29325908 -57.57655519 15.88665546 -55.2421875 15.53125 C-51.92289934 14.74479845 -49.47869495 12.98277459 -46.7265625 11.0234375 C-46.15679687 10.68570312 -45.58703125 10.34796875 -45 10 C-44.01 10 -43.02 10 -42 10 C-42 9.34 -42 8.68 -42 8 C-37.4538177 6.35262756 -32.94053362 5.3655033 -28.1875 4.5625 C-23.72502588 3.78132624 -19.43042594 2.94202953 -15.1875 1.3125 C-10.11335227 -0.48459399 -5.32268404 -0.79485415 0 0 Z " fill="#101010" transform="translate(306,442)"/>
<path d="M0 0 C0.99 0.556875 0.99 0.556875 2 1.125 C3 3 3 3 3.25 6.0625 C3 9 3 9 2 11 C1.34 11 0.68 11 0 11 C0 11.66 0 12.32 0 13 C-1.63378906 13.98779297 -1.63378906 13.98779297 -4 15 C-6.74902344 15.22705078 -6.74902344 15.22705078 -9.859375 15.1953125 C-10.97441406 15.18886719 -12.08945313 15.18242188 -13.23828125 15.17578125 C-14.39714844 15.15902344 -15.55601562 15.14226563 -16.75 15.125 C-17.92433594 15.11597656 -19.09867187 15.10695313 -20.30859375 15.09765625 C-23.20593536 15.07410063 -26.10286441 15.04120652 -29 15 C-29 15.66 -29 16.32 -29 17 C-31.875 19.625 -31.875 19.625 -35 22 C-35.66 22 -36.32 22 -37 22 C-37 22.66 -37 23.32 -37 24 C-38.32 24.33 -39.64 24.66 -41 25 C-41 25.66 -41 26.32 -41 27 C-43.21260182 28.10630091 -44.73406466 28.23058377 -47.1875 28.4375 C-51.33712035 28.85380495 -55.03210629 29.73365094 -59 31 C-59 31.66 -59 32.32 -59 33 C-60.828125 34.33203125 -60.828125 34.33203125 -63.25 35.8125 C-66.92285603 38.19582664 -69.62099434 40.24849107 -72 44 C-73.08693822 46.3066698 -74.04427799 48.63345027 -75 51 C-75.495 51.495 -75.495 51.495 -76 52 C-78.85774879 52.23046361 -81.20067586 52.38708089 -84 52 C-84.680625 51.505 -85.36125 51.01 -86.0625 50.5 C-87 48 -87 48 -87.015625 46.09375 C-86.71344339 42.97895498 -86.16459268 40.3872769 -84.9375 37.5 C-84.628125 37.005 -84.31875 36.51 -84 36 C-83.34 36 -82.68 36 -82 36 C-81.72027344 35.40832031 -81.44054687 34.81664062 -81.15234375 34.20703125 C-78.75724288 29.61980417 -75.59236203 26.1839394 -71.44140625 23.09765625 C-66.15617544 19.63036891 -61.10017993 16.70005014 -55 15 C-52.27624147 14.79372569 -49.73783915 14.85333005 -47 15 C-47 14.34 -47 13.68 -47 13 C-44.125 10.375 -44.125 10.375 -41 8 C-40.34 8 -39.68 8 -39 8 C-39 7.34 -39 6.68 -39 6 C-38.01 5.34 -37.02 4.68 -36 4 C-35.01 4 -34.02 4 -33 4 C-33 3.34 -33 2.68 -33 2 C-27.87610578 1.01336018 -22.82382326 0.68681464 -17.625 0.4375 C-16.81289062 0.39431641 -16.00078125 0.35113281 -15.1640625 0.30664062 C-10.10376314 0.05119282 -5.06616081 -0.14041466 0 0 Z " fill="#101010" transform="translate(242,41)"/>
<path d="M0 0 C5.61 0 11.22 0 17 0 C17 0.66 17 1.32 17 2 C17.5775 2.061875 18.155 2.12375 18.75 2.1875 C19.4925 2.455625 20.235 2.72375 21 3 C21.5775 3.86625 22.155 4.7325 22.75 5.625 C23.4925 6.40875 24.235 7.1925 25 8 C28.87164516 8.28271648 32.35745715 7.21418095 36 6 C39.43677658 5.80906797 42.26807385 5.76792585 45.5625 6.8125 C47.23819212 7.62886283 48.88411075 8.50836368 50.5 9.4375 C54.91771507 11.40969423 59.35550612 12.33924353 64.07421875 13.3515625 C67 14 67 14 70 15 C70 15.66 70 16.32 70 17 C70.969375 17.309375 71.93875 17.61875 72.9375 17.9375 C76 19 76 19 77 20 C77.18028904 22.79448009 77.29886568 25.24379428 77 28 C76.443125 28.99 76.443125 28.99 75.875 30 C74 31 74 31 70.9375 31.25 C68 31 68 31 66 30 C66 29.34 66 28.68 66 28 C62.40288072 27.27005441 58.79939671 26.59025242 55.1875 25.9375 C54.21167969 25.76089844 53.23585938 25.58429687 52.23046875 25.40234375 C51.49441406 25.26957031 50.75835937 25.13679688 50 25 C50 24.34 50 23.68 50 23 C48.88625 22.87625 47.7725 22.7525 46.625 22.625 C45.42875 22.41875 44.2325 22.2125 43 22 C42.34 21.34 41.68 20.68 41 20 C38.93125966 19.3574765 38.93125966 19.3574765 37 19 C37 19.66 37 20.32 37 21 C31.49939514 22.83353495 25.71802256 22.70108488 20 22 C17.03617751 20.45881231 15.00552625 18.66025132 13 16 C12.505 15.01 12.505 15.01 12 14 C9.87423218 13.53348793 9.87423218 13.53348793 7.4375 13.375 C6.61121094 13.30023438 5.78492188 13.22546875 4.93359375 13.1484375 C4.29550781 13.09945312 3.65742188 13.05046875 3 13 C3 13.66 3 14.32 3 15 C-2.95187062 17.12747716 -8.49961353 18.57764762 -14.859375 18.34765625 C-17 18 -17 18 -19.625 16.375 C-21 14 -21 14 -21.4375 10.9375 C-21.293125 9.968125 -21.14875 8.99875 -21 8 C-19.90625 6.421875 -19.90625 6.421875 -18 5 C-14.78515625 4.05078125 -14.78515625 4.05078125 -11.0625 3.3125 C-9.83660156 3.06113281 -8.61070312 2.80976562 -7.34765625 2.55078125 C-4 2 -4 2 0 2 C0 1.34 0 0.68 0 0 Z " fill="#0F0F0F" transform="translate(283,34)"/>
<path d="M0 0 C1.175625 0.144375 2.35125 0.28875 3.5625 0.4375 C5.87518051 2.155625 7.30357804 3.97453537 8.70629883 6.48266602 C9.93817894 8.94668102 11.10338887 11.43271192 12.25 13.9375 C12.65283203 14.79214844 13.05566406 15.64679688 13.47070312 16.52734375 C16.46299679 22.95300619 17.69142051 27.51408544 17.625 34.6875 C17.61597656 35.95078125 17.60695313 37.2140625 17.59765625 38.515625 C17.58605469 39.47984375 17.57445312 40.4440625 17.5625 41.4375 C19.0475 41.9325 19.0475 41.9325 20.5625 42.4375 C21.76989152 44.85228304 21.79909624 46.48692398 21.875 49.1875 C21.84660548 56.31452377 19.75721573 62.72598091 17.5625 69.4375 C16.9025 69.4375 16.2425 69.4375 15.5625 69.4375 C15.52125 70.406875 15.48 71.37625 15.4375 72.375 C14.95223208 75.84220413 13.68151181 78.15793438 11.75 81.0625 C9.46340827 84.27579197 7.16084615 87.46796154 4.5625 90.4375 C2.5625 91.4375 2.5625 91.4375 -0.375 91.75 C-1.385625 91.646875 -2.39625 91.54375 -3.4375 91.4375 C-5.3125 89.8125 -5.3125 89.8125 -6.4375 87.4375 C-6.8125 84.375 -6.8125 84.375 -6.4375 81.4375 C-5.45594816 80.41938606 -4.45313149 79.42162025 -3.4375 78.4375 C-0.39813785 73.70258864 2.0293565 68.8624693 3.5625 63.4375 C3.74683594 62.80328125 3.93117188 62.1690625 4.12109375 61.515625 C4.61117901 59.82567584 5.08806535 58.13190948 5.5625 56.4375 C6.2225 56.4375 6.8825 56.4375 7.5625 56.4375 C7.459375 55.179375 7.35625 53.92125 7.25 52.625 C7.19199219 51.91730469 7.13398438 51.20960938 7.07421875 50.48046875 C6.90535156 49.80628906 6.73648437 49.13210938 6.5625 48.4375 C5.80453125 47.81681641 5.80453125 47.81681641 5.03125 47.18359375 C4.30421875 46.31927734 4.30421875 46.31927734 3.5625 45.4375 C3.38827107 42.69117956 3.3450006 40.0560027 3.375 37.3125 C3.23386445 29.08715376 1.12289985 22.95330344 -2.55541992 15.65771484 C-4.18927578 12.33556129 -4.18927578 12.33556129 -6.4375 9.4375 C-6.6875 6.5625 -6.6875 6.5625 -6.4375 3.4375 C-6.086875 2.81875 -5.73625 2.2 -5.375 1.5625 C-3.4375 0.4375 -3.4375 0.4375 0 0 Z " fill="#111111" transform="translate(431.4375,214.5625)"/>
<path d="M0 0 C0.99 0.5259375 0.99 0.5259375 2 1.0625 C2.495 2.0215625 2.495 2.0215625 3 3 C2.8125 6.5 2.8125 6.5 2 10 C1.34 10.99 0.68 11.98 0 13 C-1.5778125 13.2165625 -1.5778125 13.2165625 -3.1875 13.4375 C-5.0746875 13.7159375 -5.0746875 13.7159375 -7 14 C-8.43472656 14.99773437 -8.43472656 14.99773437 -9.8984375 16.015625 C-12.35513195 17.47179375 -14.06532384 18.00766947 -16.92993164 18.34399414 C-20.44009417 18.43056592 -23.92732381 18.39831882 -27.4375 18.3125 C-28.67983398 18.29703125 -29.92216797 18.2815625 -31.20214844 18.265625 C-40.15381899 18.12564579 -49.08000067 17.77565212 -58 17 C-58 16.34 -58 15.68 -58 15 C-58.75023437 15.0721875 -59.50046875 15.144375 -60.2734375 15.21875 C-63.51392013 15.51259729 -66.75457339 15.76709291 -70 16 C-71.42699219 16.10248047 -71.42699219 16.10248047 -72.8828125 16.20703125 C-75.31765079 16.3051516 -77.58494219 16.32352661 -80 16 C-81.299375 15.195625 -81.299375 15.195625 -82.625 14.375 C-84 12 -84 12 -84.4375 8.9375 C-84 6 -84 6 -83 4.1875 C-79.84244004 2.31269877 -76.6363676 2.35190654 -73 2 C-72.67 1.67 -72.34 1.34 -72 1 C-69.30345146 0.92680379 -66.63308542 0.90757463 -63.9375 0.9375 C-63.17888672 0.94201172 -62.42027344 0.94652344 -61.63867188 0.95117188 C-59.75908129 0.9629932 -57.87953101 0.98092922 -56 1 C-56 1.66 -56 2.32 -56 3 C-54.84242188 3.06058594 -53.68484375 3.12117188 -52.4921875 3.18359375 C-50.95311543 3.26805502 -49.41405345 3.35270018 -47.875 3.4375 C-46.73417969 3.49647461 -46.73417969 3.49647461 -45.5703125 3.55664062 C-41.31490797 3.79509002 -37.19629174 4.20230237 -33 5 C-33 4.34 -33 3.68 -33 3 C-31.80761719 3.02320313 -30.61523438 3.04640625 -29.38671875 3.0703125 C-27.82031876 3.08907178 -26.253912 3.10727181 -24.6875 3.125 C-23.50897461 3.15013672 -23.50897461 3.15013672 -22.30664062 3.17578125 C-21.54931641 3.18222656 -20.79199219 3.18867188 -20.01171875 3.1953125 C-18.96697388 3.21102295 -18.96697388 3.21102295 -17.90112305 3.22705078 C-17.27375244 3.15212402 -16.64638184 3.07719727 -16 3 C-15.01 2.34 -14.02 1.68 -13 1 C-8.64808156 0.01092763 -4.45273953 -0.33605581 0 0 Z " fill="#0E0E0E" transform="translate(218,481)"/>
<path d="M0 0 C3.1875 -0.125 3.1875 -0.125 6 0 C6.33 0.99 6.66 1.98 7 3 C7.66 3 8.32 3 9 3 C9.05447047 4.41623216 9.09300508 5.83308191 9.125 7.25 C9.14820313 8.03890625 9.17140625 8.8278125 9.1953125 9.640625 C8.98053605 12.2351245 8.17601375 13.70745957 7 16 C6.5675644 19.8186262 6.77898632 23.33695896 8 27 C8.0960133 29.45681101 8.12983042 31.91631833 8.125 34.375 C8.12886719 36.33566406 8.12886719 36.33566406 8.1328125 38.3359375 C8.02173799 41.4002871 7.64247298 44.02354313 7 47 C6.91315582 48.56064104 6.86969254 50.12445355 6.875 51.6875 C6.87242187 52.45449219 6.86984375 53.22148437 6.8671875 54.01171875 C6.87631067 56.07479336 6.87631067 56.07479336 8 58 C8.18704404 60.69013339 8.08581391 63.29686177 8 66 C7.505 66.495 7.505 66.495 7 67 C6.75408786 70.26516681 6.61576894 73.52943002 6.4765625 76.80078125 C6 80 6 80 4.67578125 82.3828125 C4.12277344 82.91648437 3.56976563 83.45015625 3 84 C-0.4375 84.5625 -0.4375 84.5625 -4 84 C-6.19384766 81.94702148 -6.19384766 81.94702148 -8 79 C-8.36719019 76.28408422 -8.51653437 73.98966915 -8.4609375 71.28515625 C-8.45956284 70.18511513 -8.45956284 70.18511513 -8.4581604 69.06285095 C-8.45213895 67.51717631 -8.43643655 65.97151255 -8.41162109 64.42602539 C-8.37516715 62.07328777 -8.37060175 59.72213101 -8.37109375 57.36914062 C-8.36125884 55.8619657 -8.3496002 54.35480134 -8.3359375 52.84765625 C-8.33371185 52.15060074 -8.33148621 51.45354523 -8.32919312 50.73536682 C-8.24695394 46.45500264 -7.49156054 42.99777814 -6 39 C-5.72670638 36.5892375 -5.72670638 36.5892375 -5.8125 34.3125 C-5.81894531 33.56613281 -5.82539062 32.81976563 -5.83203125 32.05078125 C-5.93457594 29.80005548 -5.93457594 29.80005548 -7 27 C-7.84152019 19.20559167 -6.30456386 12.34508353 -4.16796875 4.87109375 C-3.78253906 3.92363281 -3.39710937 2.97617187 -3 2 C-2.01 1.34 -1.02 0.68 0 0 Z " fill="#0E0E0E" transform="translate(126,399)"/>
<path d="M0 0 C2.4453125 -0.109375 2.4453125 -0.109375 5.125 0.25 C6.01445312 0.35828125 6.90390625 0.4665625 7.8203125 0.578125 C8.89925781 0.78695313 8.89925781 0.78695313 10 1 C10.33 1.33 10.66 1.66 11 2 C14.40032654 2.06024942 17.7859053 2.02001033 21.18554688 1.9609375 C23.12362696 1.93985231 25.06208773 1.96690865 27 2 C27.66 2.33 28.32 2.66 29 3 C42.13316716 4.95260619 42.13316716 4.95260619 55.0625 3.328125 C55.64 3.05484375 56.2175 2.7815625 56.8125 2.5 C60 1 60 1 63.75 0.75 C67 1 67 1 70 2 C71 4 71 4 71.3125 6.875 C71.209375 7.90625 71.10625 8.9375 71 10 C69.375 12.25 69.375 12.25 67 14 C63.91027022 15.31477863 61.47908374 15.97917027 58.125 16.125 C57.073125 16.063125 57.073125 16.063125 56 16 C56 16.66 56 17.32 56 18 C46.19277383 21.01392804 34.08486026 18.85828598 24 18 C24 17.34 24 16.68 24 16 C22.68644531 16.02320313 21.37289063 16.04640625 20.01953125 16.0703125 C18.28385987 16.08907651 16.54818232 16.10727604 14.8125 16.125 C13.94818359 16.14175781 13.08386719 16.15851563 12.19335938 16.17578125 C8.52688861 16.20387681 5.52050324 16.16265726 2 15.0625 C0.70609189 14.37511132 -0.56763902 13.64767233 -1.8125 12.875 C-3 11 -3 11 -3.28515625 9.1328125 C-3.3763095 6.96891365 -3.43708752 5.1254452 -3 3 C-1.796875 1.234375 -1.796875 1.234375 0 0 Z " fill="#0F0F0F" transform="translate(352,476)"/>
<path d="M0 0 C3.08411266 -0.42539485 5.01626403 -0.60303978 8 0 C11.00514403 1.6486937 13.44403832 3.73287834 16 6 C16.99 6.721875 17.98 7.44375 19 8.1875 C19.66 9.115625 20.32 10.04375 21 11 C21.4040846 14.70498347 21.29240246 18.28973762 21 22 C21.5775 22.04125 22.155 22.0825 22.75 22.125 C25 23 25 23 27.1953125 25.328125 C28.49208165 27.45934795 29.01789565 29.1048344 29.44042969 31.58007812 C29.6925985 34.64109868 29.80710148 37.67947798 29.875 40.75 C29.92140625 41.78382813 29.9678125 42.81765625 30.015625 43.8828125 C30.22489322 50.27354205 30.28355104 56.93379598 28 63 C26.515 63.99 26.515 63.99 25 65 C21.4375 65.25 21.4375 65.25 18 65 C17.34 64.34 16.68 63.68 16 63 C15.68115234 60.11083984 15.68115234 60.11083984 15.5859375 56.4609375 C15.54726563 55.15898437 15.50859375 53.85703125 15.46875 52.515625 C15.43729237 51.13542138 15.40604509 49.75521296 15.375 48.375 C15.33682066 46.98695459 15.29776895 45.59893289 15.2578125 44.2109375 C15.16327057 40.80742815 15.07772103 37.40392835 15 34 C14.04867188 33.70222656 13.09734375 33.40445313 12.1171875 33.09765625 C9 32 9 32 7.125 30.4375 C5.66652575 27.27747246 5.72612026 24.66214757 5.796875 21.21875 C5.99512801 19.05321715 6.41100137 17.08999515 7 15 C6.2575 14.731875 5.515 14.46375 4.75 14.1875 C-0.12639405 12.08178439 -0.12639405 12.08178439 -2 10 C-2.47310339 7.15553889 -2.27902566 4.92976941 -2 2 C-1.34 1.34 -0.68 0.68 0 0 Z " fill="#0F0F0F" transform="translate(399,134)"/>
<path d="M0 0 C2.4375 0.5 2.4375 0.5 4.75 2.125 C5.306875 2.90875 5.86375 3.6925 6.4375 4.5 C6.6875 7.75 6.6875 7.75 6.4375 10.5 C5.7775 10.5 5.1175 10.5 4.4375 10.5 C4.4375 11.49 4.4375 12.48 4.4375 13.5 C3.4475 13.995 3.4475 13.995 2.4375 14.5 C2.16427464 19.91390996 1.93719381 24.82873677 3.9375 29.9375 C6.04242593 35.37275475 5.70002913 40.75352897 5.4375 46.5 C7.0875 47.16 8.7375 47.82 10.4375 48.5 C10.46439216 49.97906892 10.48384621 51.45827483 10.5 52.9375 C10.51160156 53.76121094 10.52320313 54.58492187 10.53515625 55.43359375 C10.50292969 56.11550781 10.47070312 56.79742187 10.4375 57.5 C10.1075 57.83 9.7775 58.16 9.4375 58.5 C5.51643084 58.69605346 2.39414663 58.77636458 -1.375 57.6875 C-3.58069033 56.49012525 -4.99833187 55.45521016 -6.5625 53.5 C-7.81683458 49.73699626 -7.66945422 46.22789091 -7.625 42.3125 C-7.62048828 41.56291016 -7.61597656 40.81332031 -7.61132812 40.04101562 C-7.59956354 38.19397617 -7.58162865 36.34697787 -7.5625 34.5 C-8.2225 34.5 -8.8825 34.5 -9.5625 34.5 C-12.16503573 28.10209967 -13.15031698 22.51708723 -12.98046875 15.59375 C-12.56486696 12.5175199 -11.94438081 10.59109026 -10.375 7.9375 C-7.53358901 4.15162001 -4.80959517 0.93845759 0 0 Z " fill="#0F0F0F" transform="translate(141.5625,179.5)"/>
<path d="M0 0 C3.375 -0.3125 3.375 -0.3125 7 0 C9.4375 1.125 9.4375 1.125 11 3 C11.5625 5.9375 11.5625 5.9375 11 9 C8.875 11.4375 8.875 11.4375 6 13 C2.8125 12.875 2.8125 12.875 0 12 C-0.66 11.34 -1.32 10.68 -2 10 C-2.265625 8.125 -2.265625 8.125 -2.25 6 C-2.25515625 5.29875 -2.2603125 4.5975 -2.265625 3.875 C-2.17796875 3.25625 -2.0903125 2.6375 -2 2 C-1.34 1.34 -0.68 0.68 0 0 Z " fill="#1C1C1C" transform="translate(214,144)"/>
<path d="M0 0 C3.4375 -0.25 3.4375 -0.25 7 0 C7.99 0.66 8.98 1.32 10 2 C10.375 4.875 10.375 4.875 10 8 C8.875 10.375 8.875 10.375 7 12 C4 12.375 4 12.375 1 12 C0.01 11.34 -0.98 10.68 -2 10 C-2.36328125 8.125 -2.36328125 8.125 -2.3125 6 C-2.30669922 4.948125 -2.30669922 4.948125 -2.30078125 3.875 C-2.20152344 3.25625 -2.10226562 2.6375 -2 2 C-1.34 1.34 -0.68 0.68 0 0 Z " fill="#1B1B1B" transform="translate(314,133)"/>
<path d="M0 0 C1.21816406 0.01740234 1.21816406 0.01740234 2.4609375 0.03515625 C3.68683594 0.04869141 3.68683594 0.04869141 4.9375 0.0625 C5.87722656 0.07990234 5.87722656 0.07990234 6.8359375 0.09765625 C6.8359375 0.42765625 6.8359375 0.75765625 6.8359375 1.09765625 C5.7221875 1.05640625 4.6084375 1.01515625 3.4609375 0.97265625 C1.19385282 1.13346883 1.19385282 1.13346883 -1.1640625 2.09765625 C-4.82607335 5.14241598 -8.0096043 8.53596267 -11.1640625 12.09765625 C-11.1640625 11.10765625 -11.1640625 10.11765625 -11.1640625 9.09765625 C-9.703125 7.08984375 -9.703125 7.08984375 -7.7890625 4.97265625 C-7.16257812 4.26882812 -6.53609375 3.565 -5.890625 2.83984375 C-3.86783118 0.7987441 -2.87734756 0.1298442 0 0 Z " fill="#712723" transform="translate(374.1640625,228.90234375)"/>
<path d="M0 0 C0.66 0.33 1.32 0.66 2 1 C-1.63 4.63 -5.26 8.26 -9 12 C-9 11.01 -9 10.02 -9 9 C-6.45499893 5.32388734 -3.56527647 2.67395735 0 0 Z " fill="#484848" transform="translate(170,65)"/>
<path d="M0 0 C1.36125 0.0928125 1.36125 0.0928125 2.75 0.1875 C3.08 0.8475 3.41 1.5075 3.75 2.1875 C2.3578125 2.0946875 2.3578125 2.0946875 0.9375 2 C-0.6403125 2.0928125 -0.6403125 2.0928125 -2.25 2.1875 C-4.16666667 3.27083333 -4.16666667 3.27083333 -5.25 5.1875 C-5.97197162 7.79361077 -5.97197162 7.79361077 -6.25 10.1875 C-6.58 10.1875 -6.91 10.1875 -7.25 10.1875 C-7.5 6.875 -7.5 6.875 -7.25 3.1875 C-4.92138862 0.41107873 -3.6230211 0.20902045 0 0 Z " fill="#734D49" transform="translate(303.25,248.8125)"/>
</svg>
