<svg height="100%" version="1.1" width="100%" xmlns="http://www.w3.org/2000/svg" preserveAspectRatio="xMidYMid meet" viewBox="0 0 600 442" xmlns:xlink="http://www.w3.org/1999/xlink"><desc>Created with Snap</desc><defs/><g id="root" contentwidth="545.9642207411231" contentheight="86.66">
          <rect class="background" height="2000%" width="2000%" y="-1000%" x="-1000%" style="" fill="none"/>
          <rect class="watermarklayer" height="100%" width="100%" y="0" x="0" style="" fill="none"/>
          <g class="content" id="content" transform="matrix(1,0,0,1,19.8679,245.53)">
            <g class="icon">
            <g id="name-lt-9icon"><circle cx="438.17711037056154" cy="0" r="14.637110370561535" fill="#132743"/><svg height="20.7" version="1.1" width="20.7" xmlns="http://www.w3.org/2000/svg" x="427.8271103705615" y="-10.35" Fill="#ff0000"><desc>Created with Snap</desc><defs/><svg class="icon" style="width: 128px;height: 128px;vertical-align: middle;fill: #333333;overflow: hidden;" viewBox="0 0 1024 1024" version="1.1" xmlns="http://www.w3.org/2000/svg"><path d="M1024 390.208l-368.128-33.408L512 0 368.128 357.312 0 390.208l279.552 254.912L195.584 1024 512 822.976 828.416 1024l-83.456-378.88L1024 390.208z m-512 331.968l-192.512 122.368 51.2-230.656-169.984-155.264 224.256-20.48L512 220.992l87.552 217.728 224.256 20.48L653.824 614.4l51.2 230.656L512 722.176z" fill="#ff809f" style=""/><desc>Created with Snap</desc><defs/></svg></svg></g></g>
            <g id="icon_name_and_slogan_gap">
            </g>
            <g class="name_and_slogan" id="name_and_slogan_id">
              <g class="name"><path d="M60.71000000000001 1.1700000000000002L7.15 1.1700000000000002L7.15 -67.86L62.14 -67.86L62.14 -49.010000000000005L45.63 -49.010000000000005L45.63 -54.080000000000005L24.96 -54.080000000000005L24.96 -12.35L47.71000000000001 -12.35L49.4 -17.03L64.74 -17.03L60.71000000000001 1.1700000000000002" style="" fill="#3dd6ad" id="name-lt-0"/><path d="M106.34 -38.7L106.34 0.9L92.53999999999999 0.9L92.53999999999999 -29.7L80.33999999999999 -29.7L80.33999999999999 0.9L67.94 0.9L67.94 -55.5L80.33999999999999 -55.5L80.33999999999999 -38.7L106.34 -38.7" style="" fill="#fcb9a9" id="name-lt-1"/><path d="M152.54000000000002 -7.8L152.54000000000002 0.9L109.84 0.9L109.84 -23.2L137.64000000000001 -23.2L137.64000000000001 -30L122.44 -30L122.44 -27.4L110.34 -27.4L110.34 -38.8L149.74 -38.8L149.74 -7.8L152.54000000000002 -7.8zM137.64000000000001 -7.8L137.64000000000001 -14.4L121.84 -14.4L121.84 -7.8L137.64000000000001 -7.8" style="" fill="#75e2fa" id="name-lt-2"/><path d="M196.94000000000003 0.9L196.94000000000003 -29.2L189.14000000000001 -29.2L189.14000000000001 0.9L176.44000000000003 0.9L176.44000000000003 -29.2L168.64000000000001 -29.2L168.64000000000001 0.9L156.14000000000001 0.9L156.14000000000001 -38.9L209.64000000000001 -38.9L209.64000000000001 0.9L196.94000000000003 0.9" style="" fill="#ffeb3b" id="name-lt-3"/><path d="M252.84000000000003 0.5L225.34 0.5L225.34 18.8L213.04000000000002 18.8L213.04000000000002 -38.7L252.84000000000003 -38.7L252.84000000000003 0.5zM240.84 -29.5L225.34 -29.5L225.34 -8.4L240.84 -8.4L240.84 -29.5" style="" fill="#3dd6ad" id="name-lt-4"/><path d="M294.44000000000005 -38.7L294.44000000000005 0.9L280.64000000000004 0.9L280.64000000000004 -29.7L268.44000000000005 -29.7L268.44000000000005 0.9L256.04 0.9L256.04 -55.5L268.44000000000005 -55.5L268.44000000000005 -38.7L294.44000000000005 -38.7" style="" fill="#fcb9a9" id="name-lt-5"/><path d="M340.64000000000004 -10.7L338.14000000000004 0.9L298.14000000000004 0.9L298.14000000000004 -38.9L339.74000000000007 -38.9L339.74000000000007 -15.5L311.0400000000001 -15.5L311.0400000000001 -6.9L328.0400000000001 -6.9L329.24000000000007 -10.7L340.64000000000004 -10.7zM311.0400000000001 -31L311.0400000000001 -23.5L327.24000000000007 -23.5L327.24000000000007 -31L311.0400000000001 -31" style="" fill="#75e2fa" id="name-lt-6"/><path d="M374.14000000000004 -30L356.74000000000007 -25.4L356.74000000000007 0.9L344.44000000000005 0.9L344.44000000000005 -38.6L356.74000000000007 -38.6L356.74000000000007 -35.2L374.14000000000004 -39.9L374.14000000000004 -30" style="" fill="#ffeb3b" id="name-lt-7"/><path d="M420.34000000000003 -10.7L417.84000000000003 0.9L377.84000000000003 0.9L377.84000000000003 -38.9L419.44000000000005 -38.9L419.44000000000005 -15.5L390.74000000000007 -15.5L390.74000000000007 -6.9L407.74000000000007 -6.9L408.94000000000005 -10.7L420.34000000000003 -10.7zM390.74000000000007 -31L390.74000000000007 -23.5L406.94000000000005 -23.5L406.94000000000005 -31L390.74000000000007 -31" style="" fill="#3dd6ad" id="name-lt-8"/><path d="M453.21422074112314 -44.1L453.21422074112314 -55.4L465.71422074112314 -55.4L465.71422074112314 -44.1L453.21422074112314 -44.1zM453.21422074112314 0.9L453.21422074112314 -38.7L465.71422074112314 -38.7L465.71422074112314 0.9L453.21422074112314 0.9" style="" fill="#fcb9a9" id="name-lt-10"/><path d="M469.6142207411231 -38.8L511.31422074112317 -38.8L511.31422074112317 -24.6L499.1142207411231 -24.6L499.1142207411231 -29.4L482.01422074112315 -29.4L482.01422074112315 -8.6L498.51422074112315 -8.6L499.51422074112315 -12.2L511.6142207411231 -12.2L508.71422074112314 0.9L469.6142207411231 0.9L469.6142207411231 -38.8" style="" fill="#75e2fa" id="name-lt-11"/><path d="M514.9142207411231 0.9L514.9142207411231 -38.8L527.4142207411231 -38.8L527.4142207411231 -8.6L540.4142207411231 -8.6L540.4142207411231 -38.8L553.1142207411231 -38.8L553.1142207411231 0.9L514.9142207411231 0.9" style="" fill="#ffeb3b" id="name-lt-12"/></g>
              <g class="slogan"/>
            </g>
            <g class="border">
            </g>
          </g>
          <defs id="defs">
            <mask xmlns="http://www.w3.org/2000/svg" id="mask">
                <rect id="showAll" fill="white" x="0" y="0" width="0" height="0"/>
                <rect id="hideNameBg" fill="black" x="0" y="0" width="0" height="0" stroke-width="2" stroke="black"/>
                <rect id="hideSloganBg" fill="black" x="0" y="0" width="0" height="0" stroke-width="2" stroke="black"/>
            </mask>
          
          </defs>
        </g>
        </svg>